<svg xmlns="http://www.w3.org/2000/svg" width="32" height="33">
    <path fill="#FFF" fill-rule="evenodd" d="M16 .983C7.157.983 0 8.173 0 17.01c0 8.838 7.157 16 16 16 8.838 0 16-7.162 16-16C32 8.173 24.838.983 16 .983zm7.176 9.711c.4 0 .815.159 1.126.465l1.441 1.443c.613.611.613 1.6 0 2.218l-8.91 8.88-1.441 1.441c-.23.229-.509.373-.807.434a1.587 1.587 0 0 1-1.414-.434L11.73 23.7c-.077-.077-.145-.144-.198-.231l-4.5-4.467a1.571 1.571 0 0 1 0-2.221l1.441-1.441a1.557 1.557 0 0 1 2.22 0l3.604 3.603 7.784-7.784a1.539 1.539 0 0 1 1.095-.465z"/>
</svg>
