<svg xmlns="http://www.w3.org/2000/svg" width="32" height="33">
    <path fill="#6BC77E" fill-rule="evenodd" d="M16 .982c-8.843 0-16 7.19-16 16.027 0 8.838 7.157 16 16 16 8.838 0 16-7.162 16-16C32 8.172 24.838.982 16 .982zm7.176 9.713c.4 0 .815.157 1.126.465l1.441 1.441a1.569 1.569 0 0 1 0 2.219l-8.91 8.88-1.441 1.442c-.23.229-.509.372-.807.433a1.586 1.586 0 0 1-1.414-.433L11.73 23.7c-.077-.079-.144-.144-.198-.231l-4.5-4.468a1.569 1.569 0 0 1 0-2.219l1.441-1.442a1.56 1.56 0 0 1 2.22 0l3.604 3.603 7.784-7.783a1.53 1.53 0 0 1 1.095-.465z"/>
</svg>
